<?xml version="1.0" encoding="UTF-8" standalone="no"?>
<!-- Created with Inkscape (http://www.inkscape.org/) -->

<svg
   width="210mm"
   height="297mm"
   viewBox="0 0 210 297"
   version="1.1"
   id="svg1"
   inkscape:version="1.4 (86a8ad7, 2024-10-11)"
   sodipodi:docname="alberta.svg"
   xmlns:inkscape="http://www.inkscape.org/namespaces/inkscape"
   xmlns:sodipodi="http://sodipodi.sourceforge.net/DTD/sodipodi-0.dtd"
   xmlns="http://www.w3.org/2000/svg"
   xmlns:svg="http://www.w3.org/2000/svg">
  <sodipodi:namedview
     id="namedview1"
     pagecolor="#ffffff"
     bordercolor="#000000"
     borderopacity="0.25"
     inkscape:showpageshadow="2"
     inkscape:pageopacity="0.0"
     inkscape:pagecheckerboard="0"
     inkscape:deskcolor="#d1d1d1"
     inkscape:document-units="mm"
     inkscape:zoom="0.56569164"
     inkscape:cx="395.97545"
     inkscape:cy="561.25984"
     inkscape:window-width="1600"
     inkscape:window-height="837"
     inkscape:window-x="-8"
     inkscape:window-y="-8"
     inkscape:window-maximized="1"
     inkscape:current-layer="layer1" />
  <defs
     id="defs1">
    <filter
       id="filter12879"
       inkscape:collect="always"
       x="-0.045020361"
       y="-0.039669296"
       width="1.0773937"
       height="1.0793624">
      <feGaussianBlur
         id="feGaussianBlur12881"
         inkscape:collect="always"
         stdDeviation="0.5805759" />
    </filter>
  </defs>
  <g
     inkscape:label="Layer 1"
     inkscape:groupmode="layer"
     id="layer1">
    <path
       class="country"
       d="m 253.37151,214.74788 c 0,0 0.125,0.125 0.625,1.625 0.5,1.5 0.875,2.5 2,4.5 1.125,2 0.125,8 0.125,8 l 2,2.75 c 0,0 1.625,0.75 2.25,0.875 0.625,0.125 0.375,3.25 0.25,4.5 -0.125,1.25 -1.625,0.625 -2.5,0.875 -0.875,0.25 -1.125,2.375 -1.25,3.625 -0.125,1.25 -2.37151,0.75212 -2.37151,0.75212 0.625,1.25 1.875,1.375 2.375,3.625 0.5,2.25 0.25,1.5 0.875,2.375 0.625,0.875 1.75,1 2,3 0.25,2 0.25,0.875 1.625,3.5 1.375,2.625 0.125,3.75 0.375,6.125 0.25,2.375 1.5,1.5 2.375,2.75 l 0.37151,1.37288 48,-0.125 4,-48.375 c 0,0 -62.875,-1.75 -63.125,-1.75 z"
       id="alberta"
       sodipodi:nodetypes="cssccsssscsssssc"
       style="display:inline;overflow:visible;visibility:visible;fill:none;fill-opacity:1;fill-rule:evenodd;stroke:#000000;stroke-width:1.2;stroke-linecap:butt;stroke-linejoin:miter;stroke-miterlimit:4.32165;stroke-dasharray:none;stroke-dashoffset:0;stroke-opacity:0.585271;marker:none;marker-start:none;marker-mid:none;marker-end:none;filter:url(#filter12879);enable-background:accumulate"
       transform="matrix(0.26461791,0,0,0.26461791,29.484548,84.98885)">
      <title
         id="title146">alberta</title>
    </path>
  </g>
</svg>
